<?xml version="1.0" encoding="utf-8"?>
<!-- Generator: Adobe Illustrator 25.4.1, SVG Export Plug-In . SVG Version: 6.00 Build 0)  -->
<svg version="1.1" id="Layer_1" xmlns="http://www.w3.org/2000/svg" xmlns:xlink="http://www.w3.org/1999/xlink" x="0px" y="0px"
	 viewBox="0 0 482 224" style="enable-background:new 0 0 482 224;" xml:space="preserve">
<style type="text/css">
	.st0{fill:#FFFFFF;stroke:#000000;stroke-width:4;stroke-miterlimit:10;}
</style>
<ellipse class="st0" cx="243.96" cy="115.12" rx="188.23" ry="52.79"/>
<g>
	<g>
		<path d="M77.08,133.96c-19.14-14.27-18.88-23.6-0.02-37.68c3.58-2.04,5.61-3.02,10.1-4.92c-7.34,6.01-9.97,9.2-12.52,15.79
			c1.07-0.13,1.61-0.19,2.72-0.32c2.48-6.85,5.05-10.18,12.21-16.46c4.67-1.87,7.22-2.77,12.71-4.47
			c-14.78,21.67-14.57,37.09,0.01,58.46c-5.49-1.71-8.04-2.61-12.7-4.48c-9.17-8.04-12.12-12.38-13.46-21.31
			c-1.12-0.05-1.67-0.08-2.75-0.13c1.37,8.59,4.4,12.76,13.8,20.45C82.69,136.99,80.66,136,77.08,133.96z"/>
		<path d="M113.32,147.48c-1.71-0.44-3.31-1.09-4.82-1.91c-1.52-0.82-3.04-1.89-4.53-3.2c-1.49-1.31-2.98-2.88-4.35-4.73
			c-1.38-1.85-2.71-4.05-3.8-6.65c-3.7-14.02-3.55-19.51,0.72-33.37c2.06-4.44,4.95-7.71,7.74-10.04s5.8-3.98,9.05-4.82
			c6.4-1.66,9.81-2.44,16.98-3.89c1.96-0.4,3.52-0.45,4.69-0.16c1.17,0.29,1.96,0.99,2.4,2.11c0.43,1.12,0.52,2.66,0.3,4.64
			c-0.22,1.98-0.73,4.41-1.44,7.29c-2.72,15-2.88,27.61-0.49,42.67c1.5,6.8,2.3,11.36,1.63,13.74c-0.3,1.21-1.04,1.99-2.24,2.34
			c-1.2,0.35-2.82,0.31-4.86-0.1C123.13,149.92,119.72,149.14,113.32,147.48z M111.31,101.05c-2.34,8.53-2.34,19.48-0.02,28.01
			c0.42,1.75,0.96,3.01,1.54,3.8c0.58,0.8,1.26,1.24,2.05,1.33c0.79,0.09,1.23-0.23,1.36-0.96s-0.05-2-0.45-3.79
			c-2.24-8.82-2.23-19.95,0.02-28.77c0.78-3.42,0.61-5.01-0.88-4.84c-0.78,0.09-1.47,0.55-2.06,1.38
			C112.3,98.03,111.74,99.31,111.31,101.05z"/>
		<path d="M154.32,155.5c-6.28-21.39-7.86-40.52-4.78-62.69c-4.37,0.32-6.51,0.49-10.71,0.85c1.56-7.07,2.66-10.54,5.39-17.33
			c13.92-2.29,27.9-3.82,41.94-5.14c-1.5,7.73-2.1,11.67-2.96,19.68c-4.8,0.21-7.16,0.32-11.82,0.57
			c-2.25,22.96-1.08,44.06,3.58,66.6C166.42,157.15,162.28,156.64,154.32,155.5z"/>
		<path d="M189.29,159.29c-4.68-29.93-4.68-58.49,0.01-88.42c11.9-0.94,23.82-1.56,35.75-1.87c2.67-0.07,4.94,0.29,6.83,1.06
			c1.88,0.78,3.42,2.01,4.6,3.71c1.18,1.7,2.05,3.93,2.6,6.69c0.55,2.77,0.82,6.08,0.8,9.96c-0.04,6.14-0.85,10.93-2.45,14.26
			c-1.6,3.34-4.27,5.71-7.97,7.1c3.58,1.32,6.22,4.03,7.87,8.07s2.49,10.1,2.54,18.03c0.05,8.77-1.08,14.79-3.31,18.26
			s-6.06,5.13-11.5,4.99C213.11,160.85,201.19,160.23,189.29,159.29z M209.43,89.92c-0.3,5.16-0.41,7.76-0.56,13
			c1.05-0.01,1.58-0.02,2.63-0.03c1.25-0.01,2.15-0.52,2.71-1.52s0.86-2.68,0.94-5.03c0.09-2.5-0.08-4.2-0.51-5.13
			c-0.44-0.93-1.31-1.38-2.62-1.35C210.98,89.89,210.47,89.9,209.43,89.92z M209.42,140.13c1.03,0.02,1.55,0.04,2.59,0.06
			c1.31,0.03,2.19-0.42,2.62-1.35c0.44-0.93,0.6-2.63,0.52-5.13c-0.05-1.51-0.08-2.27-0.12-3.78c-0.07-2.44-0.34-4.16-0.85-5.15
			s-1.43-1.5-2.76-1.51c-1.06-0.01-1.59-0.01-2.64-0.02C208.91,130.07,209.04,133.45,209.42,140.13z"/>
		<path d="M243.53,161.45c-0.04-30.88-0.04-61.76,0-92.64c13.75,0.1,27.47,0.37,41.19,1.16c1.04,7.95,1.46,12,2.05,20.23
			c-7.56-0.23-11.4-0.31-19.21-0.44c0.22,5.79,0.31,8.71,0.4,14.6c7.06,0.05,10.54,0.08,17.41,0.16c0.25,8.4,0.25,12.71,0,21.11
			c-6.86,0.08-10.35,0.11-17.41,0.16c-0.1,5.94-0.18,8.89-0.4,14.72c7.81-0.13,11.65-0.22,19.21-0.44
			c-0.59,8.22-1.01,12.28-2.05,20.23C270.99,161.09,257.27,161.36,243.53,161.45z"/>
		<path d="M287.95,160.1c7.18-29.68,11.18-58.65,10.12-89.22c10.11,0.76,20.26,1.81,30.31,3.17c10.06,26.19,15.96,53.05,8.97,80.9
			c-7.55,1.14-11.47,1.66-19.57,2.57c1.36-7.02,1.85-10.62,2.4-17.94c-2.54,0.15-3.83,0.22-6.42,0.36
			c-1.49,7.49-2.41,11.19-4.52,18.47C300.96,159.21,296.69,159.55,287.95,160.1z M316.71,120.69c1.57-0.02,2.35-0.03,3.9-0.05
			c-0.24-9.8-1.48-20.03-3.51-29.61C317.87,100.74,317.72,110.99,316.71,120.69z"/>
		<path d="M340.12,154.52c8.91-27.89,8.92-50.88,0.01-78.77c8.08,1.27,11.96,1.97,19.29,3.49c6.81,9.96,11.94,18.68,16.8,29.69
			c-0.81-9.4-4.66-20.15-9.63-28.13c6.48,1.49,9.55,2.29,15.3,3.96c14.19,22.46,14.01,38.54-0.01,60.73
			c-5.94,1.73-9.12,2.56-15.86,4.09c4.02-10.82,2.61-21.19,1.04-32.25c-0.39,11.85-3.69,23.45-9.07,33.98
			C351.16,152.7,347.57,153.34,340.12,154.52z"/>
		<path d="M392.45,142.11c-2.67,0.95-4.03,0.83-4.19-0.48s1.17-4.11,3.29-8.37c2.01-4.14,2.74-6.24,3.61-10.52
			c6.45-0.44,9.48-0.67,15.05-1.15c-0.38,1.4-0.63,2.1-1.21,3.49c-0.99,2.35-1.19,3.4-0.12,3.19c0.57-0.11,1.15-0.47,1.73-1.07
			c0.58-0.6,1.24-1.55,1.82-2.87c0.32-0.73,0.53-1.34,0.65-1.82c0.12-0.48,0.15-0.89,0.1-1.24s-0.2-0.64-0.43-0.9
			s-0.57-0.51-1.03-0.76c-3.32-1.95-5.24-3.09-9.5-5.61c-2.47-1.46-4.34-3.12-5.46-4.84c-1.17-1.8-2.1-4.23-3.11-7.14
			c-0.87-2.5-1.41-3.73-2.67-6.18c-1.81-3.5-2.81-5.92-2.63-7.2c0.18-1.28,1.55-1.39,4.22-0.44c5.31,1.88,7.75,2.87,12.12,4.91
			c2.2,1.03,4.64,2.43,7.34,4.04c2.7,1.62,5.6,3.42,7.99,5.62c1.84,1.7,2.61,2.56,3.82,4.32c-4.27-0.86-6.67-1.28-11.91-2.08
			c-0.11-0.23-0.17-0.34-0.28-0.57c-1.09-2.12-2.41-3.28-3.53-3.51c-0.46-0.1-0.7,0.04-0.73,0.43c-0.03,0.38,0.16,0.94,0.53,1.66
			c0.19,0.36,0.36,0.68,0.53,0.95c0.17,0.27,0.4,0.54,0.68,0.8c0.28,0.27,0.63,0.55,1.05,0.86c0.42,0.3,0.96,0.64,1.61,1.02
			c5.24,3.08,7.6,4.45,11.56,6.79c0.63,0.39,1.15,0.82,1.56,1.28c0.41,0.47,0.72,1.02,0.9,1.66c0.18,0.64,0.23,1.4,0.07,2.27
			c-0.15,0.87-0.5,1.9-1.16,3.07c-0.93,1.66-1.55,2.48-3.05,4.09c-2.99,3.19-6.7,5.47-9.47,7.15c-2.78,1.68-5.31,3.14-7.62,4.22
			C400.21,139.24,397.77,140.22,392.45,142.11z"/>
	</g>
</g>
<g>
	<g>
		<path d="M197.28,182.16c0.22-3.53,0.44-7.06,0.67-10.59c3.41,0.21,6.82,0.41,10.23,0.58c-0.04,0.81-0.08,1.61-0.12,2.42
			c-1.55-0.08-3.09-0.16-4.64-0.25c-0.03,0.56-0.06,1.11-0.09,1.67c1.38,0.08,2.75,0.15,4.13,0.22c-0.04,0.81-0.08,1.61-0.12,2.42
			c-1.38-0.07-2.76-0.14-4.14-0.22c-0.03,0.56-0.06,1.12-0.09,1.68c1.56,0.09,3.11,0.17,4.67,0.25c-0.04,0.81-0.08,1.61-0.12,2.42
			C204.19,182.58,200.73,182.38,197.28,182.16z"/>
		<path d="M212.14,182.96c-1.21-0.05-2.11-0.26-2.7-0.62c-0.6-0.36-0.86-0.92-0.8-1.68c0.03-0.62,0.06-1.24,0.09-1.86
			c1.98,0.1,3.95,0.19,5.93,0.27c-0.01,0.24-0.02,0.48-0.03,0.72c-0.02,0.49,0.21,0.74,0.69,0.76c0.25,0.01,0.44-0.04,0.57-0.16
			c0.12-0.12,0.19-0.32,0.2-0.61c0.01-0.16,0-0.29-0.02-0.4c-0.02-0.11-0.06-0.2-0.13-0.28c-0.07-0.08-0.16-0.15-0.29-0.21
			c-0.13-0.06-0.3-0.13-0.52-0.2c-1.32-0.43-2.65-0.86-3.96-1.3c-0.92-0.3-1.53-0.61-1.84-0.92c-0.31-0.33-0.45-0.75-0.42-1.26
			c0.02-0.37,0.04-0.74,0.05-1.1c0.03-0.63,0.36-1.09,0.98-1.39c0.62-0.3,1.53-0.42,2.72-0.36c1.97,0.09,3.94,0.17,5.92,0.24
			c1.19,0.04,2.09,0.24,2.68,0.58c0.59,0.34,0.88,0.83,0.86,1.46c-0.01,0.41-0.03,0.81-0.04,1.22c-1.96-0.06-3.91-0.13-5.87-0.21
			c0-0.04,0-0.08,0-0.12c0.02-0.47-0.22-0.71-0.72-0.73c-0.21-0.01-0.38,0.03-0.5,0.12c-0.13,0.09-0.2,0.21-0.2,0.36
			c0,0.08,0,0.14,0.02,0.2c0.02,0.06,0.06,0.11,0.14,0.16c0.07,0.05,0.17,0.11,0.31,0.17c0.13,0.06,0.31,0.13,0.54,0.2
			c1.53,0.52,3.07,1.03,4.61,1.54c0.29,0.1,0.54,0.21,0.74,0.34c0.2,0.12,0.36,0.27,0.49,0.45c0.12,0.17,0.21,0.38,0.26,0.62
			c0.05,0.24,0.07,0.52,0.06,0.84c-0.01,0.38-0.02,0.76-0.04,1.14c-0.05,0.9-0.37,1.51-0.97,1.84c-0.59,0.33-1.53,0.48-2.79,0.43
			C216.14,183.13,214.14,183.05,212.14,182.96z"/>
		<path d="M225.76,183.45c0.07-2.73,0.15-5.46,0.22-8.19c-1.02-0.03-2.04-0.06-3.06-0.09c0.03-0.81,0.05-1.61,0.08-2.42
			c4,0.13,8,0.22,12.01,0.28c-0.01,0.81-0.03,1.61-0.04,2.42c-1.02-0.02-2.04-0.03-3.06-0.06c-0.05,2.73-0.11,5.46-0.16,8.19
			C229.75,183.55,227.75,183.5,225.76,183.45z"/>
		<path d="M239.84,183.72c-1.39-0.01-2.78-0.03-4.16-0.05c0.01-0.88,0.03-1.75,0.04-2.63c1.38,0.02,2.77,0.04,4.15,0.05
			C239.86,181.97,239.85,182.84,239.84,183.72z"/>
		<path d="M244.02,183.74c0-0.75,0.01-1.5,0.01-2.26c2.22-1.44,4.43-2.89,6.62-4.34c0.15-0.11,0.27-0.24,0.36-0.37
			c0.09-0.14,0.13-0.28,0.13-0.43c0-0.25-0.05-0.43-0.15-0.55c-0.1-0.12-0.28-0.18-0.52-0.18c-0.22,0-0.39,0.06-0.52,0.18
			c-0.13,0.12-0.19,0.27-0.19,0.46c0,0.21,0,0.42,0,0.63c-1.9,0-3.8,0-5.7-0.01c0-0.59,0.01-1.18,0.01-1.77
			c0.01-0.64,0.3-1.13,0.9-1.46c0.59-0.34,1.46-0.5,2.6-0.5c1.92,0,3.84-0.01,5.76-0.02c1.15-0.01,2.02,0.15,2.61,0.49
			c0.59,0.33,0.89,0.82,0.89,1.46c0.01,0.6,0.01,1.2,0.02,1.8c0.01,0.46-0.06,0.84-0.2,1.12c-0.14,0.29-0.37,0.54-0.7,0.76
			c-1.31,0.87-2.62,1.74-3.93,2.61c1.63-0.01,3.25-0.02,4.88-0.04c0.01,0.79,0.02,1.59,0.03,2.38
			C252.62,183.74,248.32,183.76,244.02,183.74z"/>
		<path d="M261.28,183.64c-1.28,0.02-2.19-0.16-2.74-0.53c-0.52-0.36-0.79-1.02-0.8-1.96c-0.02-1.97-0.05-3.93-0.07-5.9
			c-0.01-0.79,0.26-1.36,0.8-1.73c0.55-0.37,1.42-0.57,2.62-0.59c1.97-0.03,3.95-0.07,5.92-0.12c0.65-0.02,1.2,0.01,1.66,0.09
			c0.46,0.08,0.84,0.2,1.13,0.37c0.3,0.17,0.51,0.4,0.65,0.69c0.14,0.29,0.22,0.63,0.23,1.03c0.06,1.97,0.11,3.93,0.17,5.9
			c0.03,0.95-0.23,1.62-0.76,2c-0.51,0.39-1.46,0.6-2.82,0.63C265.28,183.56,263.28,183.61,261.28,183.64z M263.47,176.08
			c0.03,1.47,0.06,2.94,0.09,4.42c0,0.27,0.06,0.46,0.18,0.58c0.12,0.12,0.3,0.17,0.56,0.17c0.26-0.01,0.45-0.07,0.56-0.19
			c0.11-0.12,0.17-0.32,0.16-0.59c-0.03-1.47-0.07-2.94-0.1-4.42c-0.01-0.51-0.26-0.77-0.75-0.76c-0.25,0.01-0.44,0.07-0.54,0.19
			C263.52,175.61,263.47,175.81,263.47,176.08z"/>
		<path d="M271.78,183.39c-0.02-0.75-0.04-1.5-0.07-2.25c2.17-1.51,4.33-3.04,6.47-4.57c0.15-0.12,0.26-0.24,0.34-0.38
			c0.08-0.14,0.12-0.28,0.11-0.43c-0.01-0.25-0.06-0.43-0.17-0.54c-0.11-0.12-0.28-0.17-0.53-0.16c-0.22,0.01-0.39,0.08-0.51,0.2
			c-0.12,0.12-0.18,0.28-0.18,0.47c0.01,0.21,0.01,0.42,0.02,0.63c-1.9,0.07-3.8,0.13-5.7,0.19c-0.02-0.59-0.04-1.18-0.05-1.77
			c-0.02-0.64,0.27-1.14,0.85-1.49c0.58-0.36,1.44-0.55,2.58-0.59c1.92-0.07,3.84-0.14,5.75-0.22c1.15-0.05,2.02,0.08,2.63,0.39
			c0.6,0.31,0.92,0.79,0.95,1.43c0.03,0.6,0.05,1.2,0.08,1.8c0.02,0.46-0.03,0.84-0.16,1.13c-0.13,0.29-0.35,0.55-0.67,0.78
			c-1.28,0.92-2.56,1.83-3.84,2.74c1.63-0.06,3.25-0.13,4.87-0.21c0.04,0.79,0.07,1.59,0.11,2.38
			C280.37,183.1,276.07,183.26,271.78,183.39z"/>
		<path d="M298.16,179.87c0.05,0.79-0.2,1.39-0.74,1.79c-0.54,0.4-1.42,0.64-2.63,0.71c-1.93,0.11-3.85,0.22-5.78,0.32
			c-1.16,0.06-2.04-0.07-2.64-0.39c-0.6-0.32-0.92-0.8-0.95-1.45c-0.03-0.61-0.06-1.23-0.09-1.84c1.91-0.09,3.81-0.19,5.72-0.29
			c0.01,0.22,0.02,0.44,0.04,0.67c0.02,0.26,0.08,0.45,0.19,0.57c0.11,0.12,0.29,0.17,0.53,0.15c0.24-0.01,0.41-0.08,0.52-0.21
			c0.1-0.12,0.15-0.32,0.13-0.59c-0.01-0.21-0.02-0.42-0.03-0.62c-0.03-0.51-0.36-0.74-0.99-0.71c-0.41,0.02-0.82,0.04-1.23,0.07
			c-0.04-0.8-0.09-1.6-0.13-2.4c0.38-0.02,0.76-0.04,1.14-0.06c0.69-0.04,1.02-0.3,1-0.79c-0.01-0.19-0.09-0.35-0.23-0.46
			c-0.14-0.12-0.31-0.17-0.51-0.16c-0.22,0.01-0.39,0.08-0.52,0.21c-0.13,0.13-0.18,0.29-0.17,0.48c0,0.07,0.01,0.13,0.01,0.2
			c-1.88,0.1-3.75,0.2-5.63,0.28c-0.02-0.35-0.03-0.71-0.05-1.06c-0.03-0.65,0.24-1.16,0.81-1.54c0.57-0.37,1.42-0.59,2.55-0.64
			c1.9-0.1,3.8-0.2,5.71-0.31c1.14-0.07,2.01,0.05,2.61,0.36c0.61,0.31,0.93,0.79,0.97,1.44c0.01,0.23,0.03,0.47,0.04,0.7
			c0.04,0.55-0.11,1-0.45,1.36c-0.33,0.36-0.9,0.67-1.7,0.93c0.43,0.05,0.79,0.13,1.09,0.23c0.29,0.1,0.54,0.24,0.73,0.42
			c0.19,0.18,0.34,0.4,0.43,0.67c0.09,0.27,0.15,0.59,0.18,0.96C298.11,179.19,298.14,179.53,298.16,179.87z"/>
	</g>
</g>
</svg>
